<svg xmlns="http://www.w3.org/2000/svg" viewBox="0 0 414.05 69"><defs><style>.cls-1{fill:#fff;}</style></defs><g id="Layer_2" data-name="Layer 2"><g id="Layer_1-2" data-name="Layer 1"><path class="cls-1" d="M79.5,69H14A13.79,13.79,0,0,1,.3,55.3v-18H16.2v6.5A9.05,9.05,0,0,0,25.4,53H43.6a9.24,9.24,0,0,0,9.2-9.2V37.3H68.7V54.6L79.5,69ZM40.9,21.6a6.32,6.32,0,0,1,6.3,6.5v13a6.45,6.45,0,0,1-6.3,6.5H28.1a6.32,6.32,0,0,1-6.3-6.5v-13a6.45,6.45,0,0,1,6.3-6.5Zm11.7,3.6A9.05,9.05,0,0,0,43.4,16H25.2A9.24,9.24,0,0,0,16,25.2v6.5H0v-18A13.66,13.66,0,0,1,13.7,0H54.8A13.79,13.79,0,0,1,68.5,13.7v18H52.6V25.2Z"/><path class="cls-1" d="M104.35,38.4c-1.8,1.6-4.5,2-7.6,2h-4.5v9.4h-7.2v-31H97c2.9,0,5.6.4,7.4,2,2,1.6,3.4,4,3.4,8.5,0,4.7-1.4,7.6-3.4,9.1Zm-5.2-12.5a5.62,5.62,0,0,0-2.9-.7h-4v9h4.3a3.76,3.76,0,0,0,2.9-.9c.7-.7.9-1.8.9-3.6-.3-2.3-.7-3.2-1.2-3.8Zm29.2,22.2c-1.8,1.8-4.3,2.7-7.6,2.7a10.32,10.32,0,0,1-7.4-2.5c-2.2-2-3.1-4.9-3.1-9.4,0-4.7.9-7.4,3.1-9.6,1.8-1.8,4.3-2.7,7.9-2.7,3.4,0,5.8.9,7.4,2.5,2.2,2,2.9,4.9,2.9,9.4s-.7,7.1-3.2,9.6Zm-5.1-15a3,3,0,0,0-2.2-.9,3.23,3.23,0,0,0-2.5.9c-.9.9-1.1,3.1-1.1,5.6,0,2.7.4,4.5,1.1,5.2a3.44,3.44,0,0,0,2.2.9,3.58,3.58,0,0,0,2.5-.9c.9-.9,1.1-2.9,1.1-5.6,0-2.3-.2-4.3-1.1-5.2Zm35,17h-8.8l-4.7-8.3h-1.6v8.3h-7V15.8h7V35.1H145l4.3-7.9h8.3l-7,11,7.7,11.9Zm21.5-9.9-13.5.2c0,2.9.7,4.7,3.8,4.7a8.29,8.29,0,0,0,6.1-2.5l3.4,4c-2.5,2.7-5.6,3.8-9.6,3.8a12.51,12.51,0,0,1-7.4-2.2c-2-1.8-3.1-4.7-3.1-9.2,0-3.8.7-7.2,2.9-9.6,1.6-1.6,4-2.9,7.9-2.9,7.4,0,9.6,4.7,9.6,11a26.23,26.23,0,0,1-.1,2.7Zm-9.9-8.5c-2.9,0-3.6,1.6-3.6,4h7c0-2.6-.4-4-3.4-4Zm-5.4-9.9,7.4-8.8,4.3,3.8-7.9,8.5-3.8-3.5Zm31.9,3c-2.2,0-3.4.7-4,1.8s-1.1,3.4-1.1,8.1.4,6.7,1.3,8.1a3.86,3.86,0,0,0,3.4,1.6,8.2,8.2,0,0,0,6.3-3.1l4.3,4.5c-2.7,3.4-6.3,4.9-10.8,4.9-4,0-6.7-1.3-8.3-3.1-2.9-2.9-3.6-7.9-3.6-12.6,0-5.2.7-9.9,3.6-13,2-2,4.9-3.4,9.2-3.4,3.4,0,7,.7,9.4,3.4l-4,4.9a8.24,8.24,0,0,0-5.7-2.1Zm29.9,23.3c-1.8,1.8-4.3,2.7-7.6,2.7a10.49,10.49,0,0,1-7.4-2.5c-2.2-2-3.1-4.9-3.1-9.4,0-4.7.9-7.4,3.1-9.6,1.8-1.8,4.3-2.7,7.9-2.7,3.4,0,5.8.9,7.4,2.5,2.2,2,2.9,4.9,2.9,9.4s-.8,7.1-3.2,9.6Zm-5.2-15a3,3,0,0,0-2.2-.9,3.23,3.23,0,0,0-2.5.9c-.9.9-1.1,3.1-1.1,5.6,0,2.7.4,4.5,1.1,5.2a3.44,3.44,0,0,0,2.2.9,3.58,3.58,0,0,0,2.5-.9c.9-.9,1.1-2.9,1.1-5.6,0-2.3-.2-4.3-1.1-5.2Zm38.6,17V36c0-1.8-.2-2.9-1.6-2.9-2,0-4,2.2-4,7.6v9.2h-7V35.7c0-1.8-.2-2.7-1.6-2.7-2,0-4,2.2-4,7.6v9.2h-7V26.9H241v3.4a7.18,7.18,0,0,1,6.7-4c2.9,0,4.9,1.3,6.1,4.3a7.78,7.78,0,0,1,7-4.3c4.3,0,6.5,2.9,6.5,8.1V49.7h-7.6Zm37.9,0V36c0-1.8-.2-2.9-1.6-2.9-2,0-4,2.2-4,7.6v9.2h-7V35.7c0-1.8-.2-2.7-1.6-2.7-2,0-4,2.2-4,7.6v9.2h-7V26.9h6.5v3.4a7.18,7.18,0,0,1,6.7-4c2.9,0,4.9,1.3,6.1,4.3a7.78,7.78,0,0,1,7-4.3c4.3,0,6.5,2.9,6.5,8.1V49.7h-7.6v.4Zm25.8,0V46.5a6.87,6.87,0,0,1-6.7,4c-4.3,0-6.5-2.9-6.5-8.1V27.1h7V41.5c0,1.6.4,2.7,1.8,2.7,2,0,4-2.5,4-7.6V27.2h7V50.1Zm25.2,0V36c0-1.8-.4-2.7-1.8-2.7-2.2,0-4.3,2.5-4.3,7.9v9.2h-7V27.5H342v3.6a7.18,7.18,0,0,1,6.7-4c4.5,0,6.7,2.9,6.7,8.1V50.5h-7v-.4Zm16.1-26.2a4.09,4.09,0,0,1-4-4.3,4.09,4.09,0,0,1,4-4.3c2.5,0,4,1.8,4,4.3a4,4,0,0,1-4,4.3Zm3.4,26.2h-7V27.2h7V50.1Zm14.6-9.2c0,2.5,0,3.1,2.5,3.1a14.15,14.15,0,0,0,2.9-.2l.4,5.8a19.1,19.1,0,0,1-4.7.7c-6.3,0-8.1-3.1-8.1-8.8V33.7h-3.4v-6h3.4V21.4l7-.7v7h5.6v6.1h-5.6v7.1Zm25.1,7.9c-2.2,7.6-5.6,11.9-11.2,11.9a8.07,8.07,0,0,1-4.5-1.1l2-5.6a4.49,4.49,0,0,0,2.2.4c2.2,0,3.4-1.3,4.5-5.2h-3.1l-6.7-22h7.4l4.3,17.5,4-17.5h7.4l-6.3,21.6Z"/></g></g></svg>